<svg width="33" height="11" viewBox="0 0 33 11" fill="none" xmlns="http://www.w3.org/2000/svg">
<path d="M16.3398 0.188572L14.1347 10.4964H11.4683L13.6737 0.188572H16.3398ZM27.5585 6.84437L28.9624 2.97343L29.7702 6.84437H27.5585ZM30.5336 10.4964H33L30.8478 0.188572H28.5712C28.0596 0.188572 27.628 0.486111 27.4359 0.944817L23.4354 10.4964H26.2356L26.7915 8.95716H30.2126L30.5336 10.4964ZM23.5744 7.13082C23.5858 4.41023 19.8121 4.26048 19.8382 3.04521C19.846 2.67491 20.1987 2.28211 20.969 2.1813C21.3517 2.13138 22.4038 2.09321 23.5985 2.64294L24.0664 0.457075C23.4246 0.224133 22.5989 0 21.5719 0C18.9364 0 17.0814 1.40124 17.0657 3.40767C17.0491 4.89145 18.39 5.71947 19.4004 6.21276C20.4391 6.71812 20.7882 7.04176 20.7837 7.49361C20.7768 8.18558 19.955 8.4903 19.1883 8.50237C17.8474 8.52358 17.0693 8.14056 16.4491 7.85151L15.9659 10.1101C16.5888 10.3962 17.7388 10.6448 18.9319 10.6576C21.7327 10.6576 23.5653 9.27362 23.5744 7.13082ZM12.5296 0.188572L8.20939 10.4964H5.39028L3.26444 2.27004C3.13525 1.76338 3.02302 1.57807 2.63054 1.36437C1.99012 1.01692 0.931439 0.690343 0 0.488068L0.0636184 0.188572H4.60076C5.17887 0.188572 5.69923 0.573545 5.83039 1.23942L6.95333 7.20455L9.72808 0.188572H12.5296Z" fill="#1434CB"/>
</svg>
