<svg width="27" height="12" viewBox="0 0 27 12" fill="none" xmlns="http://www.w3.org/2000/svg">
<path d="M5.10289 1.47701C5.42077 1.0794 5.63649 0.545543 5.57959 0C5.11426 0.0231384 4.54641 0.306997 4.21765 0.70491C3.92246 1.04566 3.6612 1.60188 3.72931 2.12455C4.25167 2.16986 4.77355 1.86345 5.10289 1.47701Z" fill="#000008"/>
<path d="M5.57368 2.22661C4.81508 2.18142 4.17009 2.65715 3.80783 2.65715C3.44536 2.65715 2.89061 2.24938 2.2906 2.26037C1.50965 2.27184 0.785025 2.71339 0.388728 3.41567C-0.426389 4.82058 0.173619 6.90454 0.966276 8.04875C1.35121 8.61483 1.81512 9.23813 2.42639 9.21574C3.00394 9.19308 3.23031 8.84177 3.93235 8.84177C4.63387 8.84177 4.83779 9.21574 5.44916 9.20441C6.08316 9.19307 6.47953 8.63805 6.86446 8.07142C7.30605 7.42612 7.48682 6.80303 7.49819 6.76882C7.48682 6.75749 6.27564 6.29285 6.26441 4.89963C6.25298 3.73306 7.21532 3.17817 7.26061 3.14376C6.71717 2.34001 5.86805 2.24938 5.57368 2.22661Z" fill="#000008"/>
<path d="M12.1789 0.647847C13.8277 0.647847 14.9758 1.78437 14.9758 3.43907C14.9758 5.09968 13.8041 6.24212 12.1376 6.24212H10.312V9.14523H8.99309V0.647844L12.1789 0.647847ZM10.312 5.13501H11.8254C12.9738 5.13501 13.6273 4.51676 13.6273 3.44498C13.6273 2.37331 12.9738 1.76086 11.8313 1.76086H10.312V5.13501Z" fill="#000008"/>
<path d="M15.3204 7.38453C15.3204 6.30094 16.1507 5.63556 17.623 5.5531L19.3188 5.45303V4.97609C19.3188 4.28708 18.8536 3.87488 18.0764 3.87488C17.3402 3.87488 16.8808 4.22813 16.7691 4.78174H15.5678C15.6384 3.66282 16.5923 2.83842 18.1234 2.83842C19.625 2.83842 20.5848 3.6334 20.5848 4.8759V9.14521H19.3658V8.12647H19.3365C18.9774 8.81547 18.1941 9.25118 17.3815 9.25118C16.1684 9.25118 15.3204 8.49743 15.3204 7.38453ZM19.3188 6.82513V6.33638L17.7936 6.43054C17.0339 6.48358 16.6041 6.81922 16.6041 7.34921C16.6041 7.89089 17.0516 8.24425 17.7347 8.24425C18.6239 8.24425 19.3188 7.63181 19.3188 6.82513Z" fill="#000008"/>
<path d="M21.7356 11.4242V10.3936C21.8297 10.4171 22.0416 10.4171 22.1477 10.4171C22.7366 10.4171 23.0546 10.1699 23.2488 9.5339C23.2488 9.52208 23.3608 9.15702 23.3608 9.15112L21.1232 2.9503H22.501L24.0675 7.99107H24.0909L25.6575 2.9503H27.0001L24.6798 9.46904C24.15 10.9707 23.5375 11.4536 22.2538 11.4536C22.1477 11.4536 21.8297 11.4418 21.7356 11.4242Z" fill="#000008"/>
</svg>
