<svg width="35" height="10" viewBox="0 0 35 10" fill="none" xmlns="http://www.w3.org/2000/svg">
<path fill-rule="evenodd" clip-rule="evenodd" d="M4.19997 0.000988941H1.47767C1.29138 0.000988941 1.13294 0.136365 1.10389 0.320185L0.00285576 7.30017C-0.0190283 7.43794 0.0876483 7.56209 0.227371 7.56209H1.52702C1.71331 7.56209 1.87175 7.42671 1.9008 7.24252L2.19777 5.35993C2.22641 5.17556 2.38524 5.04037 2.57114 5.04037H3.43293C5.2262 5.04037 6.26109 4.17266 6.53151 2.45327C6.65327 1.70104 6.53667 1.10998 6.18427 0.695927C5.79743 0.241536 5.11107 0.000988941 4.19997 0.000988941ZM4.51405 2.55033C4.36521 3.52708 3.61883 3.52708 2.89715 3.52708H2.48635L2.77454 1.70288C2.79166 1.59274 2.88719 1.51151 2.99865 1.51151H3.18693C3.67853 1.51151 4.14232 1.51151 4.38197 1.79166C4.52473 1.9589 4.56857 2.20719 4.51405 2.55033ZM12.3376 2.51902H11.034C10.9229 2.51902 10.8269 2.60025 10.8098 2.71058L10.7521 3.07508L10.6609 2.94302C10.3787 2.53339 9.74946 2.39654 9.12131 2.39654C7.68061 2.39654 6.45027 3.48748 6.21062 5.0179C6.08609 5.78117 6.26312 6.51111 6.69619 7.0202C7.09353 7.48823 7.662 7.68328 8.33823 7.68328C9.49894 7.68328 10.1427 6.93695 10.1427 6.93695L10.0845 7.29925C10.0626 7.43776 10.1693 7.5619 10.3082 7.5619H11.4825C11.6693 7.5619 11.8268 7.42652 11.8563 7.24233L12.5609 2.78094C12.5832 2.64372 12.4769 2.51902 12.3376 2.51902ZM10.5204 5.05602C10.3946 5.80069 9.80343 6.30058 9.04965 6.30058C8.6711 6.30058 8.36844 6.1792 8.17429 5.94915C7.98161 5.72076 7.90829 5.39548 7.96963 5.03337C8.08716 4.29496 8.68823 3.77886 9.4306 3.77886C9.80067 3.77886 10.1017 3.90172 10.2999 4.13379C10.4985 4.36826 10.5773 4.69538 10.5204 5.05602ZM17.9705 2.51884H19.2806C19.4641 2.51884 19.5711 2.72458 19.4669 2.87506L15.1098 9.1636C15.0392 9.26545 14.923 9.32605 14.7988 9.32605H13.4904C13.3062 9.32605 13.1986 9.11866 13.3053 8.96781L14.662 7.05299L13.219 2.81888C13.1691 2.67171 13.2778 2.51884 13.4344 2.51884H14.7216C14.8889 2.51884 15.0365 2.62861 15.0847 2.78867L15.8505 5.34594L17.6574 2.68479C17.7281 2.58091 17.8456 2.51884 17.9705 2.51884Z" fill="#253B80"/>
<path fill-rule="evenodd" clip-rule="evenodd" d="M32.1747 7.29955L33.2919 0.191922C33.3091 0.0815937 33.4047 0.000368376 33.5158 0H34.7735C34.9124 0 35.0191 0.12451 34.9972 0.262283L33.8954 7.2419C33.8667 7.42608 33.7083 7.56147 33.5216 7.56147H32.3983C32.2594 7.56147 32.1528 7.43732 32.1747 7.29955ZM23.6184 0.000365441H20.8956C20.7097 0.000365441 20.5513 0.135744 20.5222 0.319563L19.4212 7.29955C19.3992 7.43732 19.5059 7.56147 19.645 7.56147H21.042C21.1719 7.56147 21.283 7.46679 21.3032 7.33786L21.6157 5.35931C21.6444 5.17494 21.8032 5.03975 21.989 5.03975H22.8504C24.644 5.03975 25.6788 4.17204 25.9494 2.45264C26.0715 1.70042 25.9541 1.10936 25.6019 0.695307C25.2153 0.240916 24.5295 0.000365441 23.6184 0.000365441ZM23.9324 2.54971C23.784 3.52646 23.0376 3.52646 22.3155 3.52646H21.905L22.1937 1.70226C22.2108 1.59212 22.3055 1.51089 22.4173 1.51089H22.6056C23.0969 1.51089 23.5611 1.51089 23.8006 1.79104C23.9435 1.95828 23.987 2.20657 23.9324 2.54971ZM31.7553 2.5184H30.4525C30.3405 2.5184 30.2455 2.59963 30.2287 2.70995L30.1711 3.07446L30.0795 2.9424C29.7973 2.53277 29.1684 2.39592 28.5403 2.39592C27.0996 2.39592 25.8696 3.48686 25.6299 5.01728C25.5058 5.78055 25.6821 6.51049 26.1151 7.01958C26.5132 7.4876 27.081 7.68266 27.7572 7.68266C28.9179 7.68266 29.5615 6.93633 29.5615 6.93633L29.5035 7.29863C29.4816 7.43714 29.5882 7.56128 29.728 7.56128H30.9018C31.0877 7.56128 31.2461 7.4259 31.2752 7.24171L31.9802 2.78031C32.0017 2.64309 31.8951 2.5184 31.7553 2.5184ZM29.9382 5.0554C29.8131 5.80007 29.2213 6.29996 28.4673 6.29996C28.0895 6.29996 27.7863 6.17858 27.592 5.94853C27.3993 5.72014 27.3269 5.39486 27.3875 5.03275C27.5056 4.29434 28.1059 3.77824 28.8483 3.77824C29.2185 3.77824 29.5193 3.9011 29.7177 4.13317C29.917 4.36765 29.9959 4.69476 29.9382 5.0554Z" fill="#179BD7"/>
</svg>
