<svg width="26" height="16" viewBox="0 0 26 16" fill="none" xmlns="http://www.w3.org/2000/svg">
<path d="M16.4437 1.71041H9.44374V14.2896H16.4437V1.71041Z" fill="#FF5F00"/>
<path d="M9.88824 8C9.88714 6.78853 10.1617 5.59269 10.691 4.50301C11.2204 3.41332 11.9908 2.45836 12.9438 1.7104C11.7636 0.782767 10.3463 0.205884 8.85374 0.0456902C7.36121 -0.114504 5.85373 0.148449 4.50359 0.804506C3.15344 1.46056 2.01512 2.48325 1.21872 3.75567C0.422328 5.02809 0 6.4989 0 8C0 9.5011 0.422328 10.9719 1.21872 12.2443C2.01512 13.5167 3.15344 14.5394 4.50359 15.1955C5.85373 15.8516 7.36121 16.1145 8.85374 15.9543C10.3463 15.7941 11.7636 15.2172 12.9438 14.2896C11.9908 13.5416 11.2204 12.5867 10.6911 11.497C10.1617 10.4073 9.88714 9.21147 9.88824 8Z" fill="#EB001B"/>
<path d="M25.8871 8C25.8872 9.50107 25.4649 10.9719 24.6686 12.2443C23.8722 13.5167 22.7339 14.5394 21.3838 15.1955C20.0337 15.8515 18.5262 16.1145 17.0337 15.9543C15.5412 15.7941 14.1239 15.2172 12.9438 14.2896C13.8959 13.5409 14.6657 12.5858 15.195 11.4963C15.7243 10.4067 15.9993 9.21127 15.9993 8C15.9993 6.78872 15.7243 5.59326 15.195 4.50374C14.6657 3.41423 13.8959 2.45911 12.9438 1.7104C14.1239 0.782766 15.5412 0.20588 17.0337 0.0456881C18.5262 -0.114504 20.0337 0.148461 21.3838 0.804525C22.7339 1.46059 23.8722 2.48328 24.6686 3.7557C25.4649 5.02812 25.8872 6.49892 25.8871 8Z" fill="#F79E1B"/>
<path d="M25.1239 12.9573V12.6997H25.2277V12.6473H24.9633V12.6997H25.0672V12.9573H25.1239ZM25.6373 12.9573V12.6468H25.5563L25.463 12.8603L25.3698 12.6468H25.2887V12.9573H25.3459V12.723L25.4333 12.925H25.4927L25.5801 12.7225V12.9573H25.6373Z" fill="#F79E1B"/>
</svg>
