<svg width="29" height="12" viewBox="0 0 29 12" fill="none" xmlns="http://www.w3.org/2000/svg">
<path d="M13.5352 8.88853H12.4706V0.604395H15.293C16.0083 0.604395 16.6182 0.842828 17.1173 1.31969C17.6274 1.79656 17.8825 2.37878 17.8825 3.06635C17.8825 3.77055 17.6274 4.35277 17.1173 4.82409C16.6238 5.29541 16.0138 5.5283 15.293 5.5283H13.5352V8.88853ZM13.5352 1.62466V4.51357H15.3152C15.7366 4.51357 16.0915 4.36941 16.3687 4.08661C16.6515 3.80382 16.7957 3.46004 16.7957 3.07189C16.7957 2.68929 16.6515 2.35105 16.3687 2.06826C16.0915 1.77438 15.7421 1.63021 15.3152 1.63021H13.5352V1.62466Z" fill="#3C4043"/>
<path d="M20.6659 3.03308C21.4533 3.03308 22.0743 3.24378 22.529 3.6652C22.9837 4.08661 23.211 4.66329 23.211 5.39522V8.88853H22.1963V8.10115H22.1519C21.7139 8.7499 21.1261 9.07151 20.3942 9.07151C19.7676 9.07151 19.2464 8.88853 18.825 8.51702C18.4036 8.14551 18.1929 7.68528 18.1929 7.13078C18.1929 6.54302 18.4147 6.07724 18.8583 5.73346C19.3018 5.38413 19.8951 5.21224 20.6326 5.21224C21.2647 5.21224 21.786 5.32868 22.1907 5.56157V5.31759C22.1907 4.94608 22.0466 4.63556 21.7527 4.37495C21.4588 4.11434 21.115 3.9868 20.7213 3.9868C20.128 3.9868 19.6567 4.23633 19.3129 4.74092L18.3758 4.15315C18.8915 3.40459 19.6567 3.03308 20.6659 3.03308ZM19.2908 7.14742C19.2908 7.42466 19.4072 7.65755 19.6456 7.84053C19.8785 8.02352 20.1558 8.11778 20.4718 8.11778C20.921 8.11778 21.3202 7.95143 21.6695 7.61874C22.0188 7.28604 22.1963 6.8979 22.1963 6.44876C21.8636 6.18815 21.4034 6.05507 20.8101 6.05507C20.3776 6.05507 20.0171 6.16042 19.7288 6.36558C19.4349 6.58184 19.2908 6.84245 19.2908 7.14742Z" fill="#3C4043"/>
<path d="M28.9999 3.21611L25.4512 11.3783H24.3533L25.673 8.52262L23.333 3.21611H24.4919L26.1776 7.28609H26.1998L27.8411 3.21611H28.9999Z" fill="#3C4043"/>
<path d="M9.30053 4.85736C9.30053 4.51025 9.26948 4.17811 9.21181 3.85872H4.74927V5.68855L7.31934 5.6891C7.21509 6.29794 6.87962 6.81694 6.36561 7.16295V8.35012H7.89545C8.78874 7.52337 9.30053 6.30127 9.30053 4.85736Z" fill="#4285F4"/>
<path d="M6.36615 7.163C5.94031 7.45023 5.39191 7.61824 4.75037 7.61824C3.51108 7.61824 2.45977 6.78318 2.08327 5.65755H0.505188V6.88188C1.28702 8.43335 2.89393 9.49798 4.75037 9.49798C6.03346 9.49798 7.11139 9.07601 7.89599 8.34962L6.36615 7.163Z" fill="#34A853"/>
<path d="M1.93462 4.74923C1.93462 4.43317 1.98729 4.12764 2.08322 3.84041V2.61609H0.50514C0.181872 3.25764 0 3.98181 0 4.74923C0 5.51665 0.182427 6.24081 0.50514 6.88236L2.08322 5.65804C1.98729 5.37081 1.93462 5.06529 1.93462 4.74923Z" fill="#FABB05"/>
<path d="M4.75037 1.87973C5.45069 1.87973 6.07782 2.12094 6.57298 2.59226L7.92871 1.23763C7.10529 0.470765 6.0318 0 4.75037 0C2.89449 0 1.28697 1.06462 0.50514 2.61609L2.08322 3.84041C2.45972 2.71479 3.51108 1.87973 4.75037 1.87973Z" fill="#E94235"/>
</svg>
